<?xml version="1.0" standalone="no"?>
<!DOCTYPE svg PUBLIC "-//W3C//DTD SVG 20010904//EN"
 "http://www.w3.org/TR/2001/REC-SVG-20010904/DTD/svg10.dtd">
<svg version="1.0" xmlns="http://www.w3.org/2000/svg"
 width="340.000000pt" height="340.000000pt" viewBox="0 0 340.000000 340.000000"
 preserveAspectRatio="xMidYMid meet">
<metadata>
Created by potrace 1.14, written by Peter Selinger 2001-2017
</metadata>
<g transform="translate(0.000000,340.000000) scale(0.100000,-0.100000)"
fill="#000000" stroke="none">
<path d="M2060 3145 l0 -35 -65 0 -65 0 0 -35 0 -35 -110 0 -110 0 0 -35 c0
-33 -2 -35 -35 -35 -34 0 -35 -1 -35 -40 l0 -40 -110 0 -110 0 0 -35 c0 -33
-2 -35 -35 -35 -33 0 -35 -2 -35 -35 0 -33 -2 -35 -35 -35 -33 0 -35 2 -35 35
l0 35 -75 0 -75 0 0 35 0 35 -180 0 -180 0 0 -35 c0 -33 -2 -35 -35 -35 l-35
0 0 -70 0 -70 -35 0 c-33 0 -35 -2 -35 -35 0 -33 -2 -35 -35 -35 l-35 0 0 -75
0 -75 -40 0 -40 0 0 -70 0 -70 -35 0 -35 0 0 -180 0 -180 -35 0 -35 0 0 -145
0 -145 -35 0 -35 0 0 -110 0 -110 35 0 35 0 0 -105 0 -105 35 0 35 0 0 -110 0
-110 35 0 c33 0 35 -2 35 -35 0 -34 1 -35 40 -35 39 0 40 -1 40 -35 l0 -35
285 0 285 0 0 -40 c0 -39 1 -40 35 -40 l35 0 0 75 0 75 110 0 110 0 0 -35 c0
-33 2 -35 35 -35 l35 0 0 -75 0 -75 40 0 40 0 0 -70 0 -70 35 0 c33 0 35 -2
35 -35 0 -33 2 -35 35 -35 34 0 35 -1 35 -40 l0 -40 245 0 245 0 0 40 0 40 75
0 75 0 0 35 c0 33 2 35 35 35 33 0 35 2 35 35 0 33 2 35 35 35 33 0 35 2 35
35 0 33 2 35 35 35 l35 0 0 75 0 75 40 0 c39 0 40 1 40 35 0 33 2 35 35 35
l35 0 0 70 0 70 35 0 c33 0 35 2 35 35 0 33 2 35 35 35 l35 0 0 110 0 110 35
0 35 0 0 75 0 75 40 0 40 0 0 320 0 320 -145 0 -145 0 0 40 c0 39 -1 40 -35
40 -33 0 -35 2 -35 35 0 34 -1 35 -40 35 -39 0 -40 1 -40 35 0 33 -2 35 -35
35 l-35 0 0 70 0 70 -35 0 -35 0 0 110 0 110 -35 0 c-33 0 -35 2 -35 35 0 33
-2 35 -35 35 l-35 0 0 145 0 145 -75 0 -75 0 0 35 c0 33 -2 35 -35 35 -33 0
-35 -2 -35 -35z m70 -360 l0 -105 35 0 c33 0 35 -2 35 -35 0 -34 1 -35 40 -35
l40 0 0 -110 0 -110 35 0 35 0 0 -70 0 -70 35 0 35 0 0 -75 0 -75 70 0 70 0 0
-35 0 -35 110 0 110 0 0 -35 c0 -33 2 -35 35 -35 l35 0 0 -145 0 -145 -35 0
-35 0 0 -70 0 -70 -35 0 -35 0 0 -110 0 -110 -35 0 c-33 0 -35 -2 -35 -35 0
-34 -1 -35 -40 -35 l-40 0 0 -110 0 -110 -35 0 c-33 0 -35 -2 -35 -35 0 -33
-2 -35 -35 -35 -33 0 -35 -2 -35 -35 0 -33 -2 -35 -35 -35 -34 0 -35 -1 -35
-40 0 -39 -1 -40 -35 -40 -33 0 -35 -2 -35 -35 0 -34 -1 -35 -40 -35 -39 0
-40 -1 -40 -35 0 -33 -2 -35 -35 -35 -33 0 -35 -2 -35 -35 l0 -35 -175 0 -175
0 0 35 c0 33 -2 35 -35 35 l-35 0 0 215 0 215 -35 0 c-33 0 -35 2 -35 35 0 33
-2 35 -35 35 l-35 0 0 110 0 110 70 0 70 0 0 -35 c0 -33 2 -35 35 -35 33 0 35
-2 35 -35 0 -33 2 -35 35 -35 l35 0 0 -110 0 -110 40 0 c39 0 40 -1 40 -35 0
-32 2 -35 30 -35 28 0 30 -3 30 -35 0 -33 2 -35 35 -35 l35 0 0 70 0 70 -35 0
-35 0 0 145 0 145 -30 0 -30 0 0 70 0 70 175 0 175 0 0 75 0 75 140 0 140 0 0
70 0 70 -140 0 -140 0 0 -35 c0 -34 -1 -35 -40 -35 -39 0 -40 -1 -40 -35 l0
-35 -210 0 -210 0 0 35 c0 33 -2 35 -35 35 -33 0 -35 2 -35 35 l0 35 140 0
140 0 0 35 c0 33 2 35 35 35 34 0 35 1 35 40 l0 40 70 0 70 0 0 35 c0 34 1 35
40 35 l40 0 0 105 0 105 -75 0 -75 0 0 -35 c0 -33 -2 -35 -35 -35 -33 0 -35
-2 -35 -35 0 -33 -2 -35 -35 -35 -33 0 -35 -2 -35 -35 l0 -35 -70 0 -70 0 0
-35 c0 -33 -2 -35 -35 -35 -33 0 -35 2 -35 35 0 33 -2 35 -35 35 -33 0 -35 2
-35 35 0 33 2 35 35 35 33 0 35 2 35 35 0 33 2 35 35 35 l35 0 0 145 0 145 40
0 c39 0 40 1 40 35 0 32 2 35 30 35 l30 0 0 145 0 145 -70 0 -70 0 0 -70 0
-70 -35 0 c-34 0 -35 -1 -35 -40 0 -39 -1 -40 -35 -40 l-35 0 0 -180 0 -180
-110 0 -110 0 0 75 0 75 -35 0 -35 0 0 70 0 70 -70 0 -70 0 0 -105 0 -105 35
0 35 0 0 -75 0 -75 35 0 35 0 0 -105 0 -105 35 0 35 0 0 -75 0 -75 -70 0 -70
0 0 35 c0 33 -2 35 -35 35 l-35 0 0 75 0 75 -40 0 c-39 0 -40 1 -40 35 0 33
-2 35 -35 35 l-35 0 0 70 0 70 -70 0 -70 0 0 75 0 75 -75 0 -75 0 0 -75 0 -75
40 0 40 0 0 -70 0 -70 35 0 35 0 0 -70 0 -70 35 0 c34 0 35 -1 35 -40 0 -39 1
-40 35 -40 33 0 35 -2 35 -35 0 -33 2 -35 35 -35 l35 0 0 -70 0 -70 -105 0
-105 0 0 -35 c0 -33 -2 -35 -35 -35 -34 0 -35 -1 -35 -40 l0 -40 -110 0 -110
0 0 -70 0 -70 110 0 110 0 0 35 c0 33 2 35 35 35 33 0 35 2 35 35 l0 35 180 0
180 0 0 -70 0 -70 -110 0 -110 0 0 -75 0 -75 -35 0 c-33 0 -35 -2 -35 -35 0
-33 -2 -35 -35 -35 -33 0 -35 -2 -35 -35 l0 -35 -145 0 -145 0 0 35 c0 33 -2
35 -35 35 -33 0 -35 2 -35 35 0 33 -2 35 -35 35 l-35 0 0 145 0 145 -40 0 -40
0 0 145 0 145 40 0 40 0 0 215 0 215 35 0 35 0 0 75 0 75 35 0 35 0 0 70 0 70
35 0 35 0 0 75 0 75 35 0 c33 0 35 2 35 35 0 34 1 35 40 35 39 0 40 1 40 35 0
33 2 35 35 35 33 0 35 -2 35 -35 0 -33 2 -35 35 -35 33 0 35 -2 35 -35 l0 -35
215 0 215 0 0 35 0 35 75 0 75 0 0 35 0 35 70 0 70 0 0 35 0 35 75 0 75 0 0
35 0 35 100 0 100 0 0 -105z"/>
<path d="M990 405 c0 -33 2 -35 35 -35 33 0 35 2 35 35 0 33 -2 35 -35 35 -33
0 -35 -2 -35 -35z"/>
<path d="M933 3 c9 -2 25 -2 35 0 9 3 1 5 -18 5 -19 0 -27 -2 -17 -5z"/>
</g>
</svg>
